<?xml version="1.0" encoding="UTF-8"?>
<svg width="47px" height="53px" viewBox="0 0 47 53" version="1.1" xmlns="http://www.w3.org/2000/svg" xmlns:xlink="http://www.w3.org/1999/xlink">
    <!-- Generator: Sketch 53.2 (72643) - https://sketchapp.com -->
    <title>Group 19</title>
    <desc>Created with Sketch.</desc>
    <defs>
        <linearGradient x1="61.3349702%" y1="17.5280449%" x2="36.071851%" y2="92.1875%" id="linearGradient-1">
            <stop stop-color="#4789FC" offset="0%"></stop>
            <stop stop-color="#2DDACC" offset="100%"></stop>
        </linearGradient>
        <linearGradient x1="82.2098214%" y1="17.5280449%" x2="10.421317%" y2="92.1875%" id="linearGradient-2">
            <stop stop-color="#4789FC" offset="0%"></stop>
            <stop stop-color="#2DDACC" offset="100%"></stop>
        </linearGradient>
    </defs>
    <g id="Page-1" stroke="none" stroke-width="1" fill="none" fill-rule="evenodd">
        <g id="数据中心颜色定制" transform="translate(-47.000000, -48.000000)" fill-rule="nonzero">
            <g id="logo" transform="translate(40.000000, 36.000000)">
                <g id="Group-19" transform="translate(0.000000, 2.271379)">
                    <g id="Group-3" transform="translate(32.589290, 35.000000) rotate(-324.000000) translate(-32.589290, -35.000000) translate(14.589290, 5.000000)" fill="url(#linearGradient-1)">
                        <path d="M22.3163967,18.1018412 C20.6706902,19.9701805 20.5475649,22.8048755 22.150975,24.8223314 C22.5046915,25.2673876 22.9284691,25.6519231 23.405696,25.9608645 L25.1862373,27.11353 L25.0583782,27.11353 C31.2410554,29.7389539 35.5621426,35.7378238 35.5621426,42.7182111 C35.5621426,52.1176727 27.7271257,59.7374419 18.0621426,59.7374419 C8.39715945,59.7374419 0.562142574,52.1176727 0.562142574,42.7182111 C0.562142574,35.2337407 5.52985138,28.8776653 12.4335359,26.5984286 L13.5191212,25.8956554 C16.0491386,24.2578031 16.7723813,20.8790772 15.1345291,18.3490598 C15.0842605,18.2714092 15.0320611,18.1951038 14.9779891,18.1202112 C11.8070828,16.7113921 9.59440064,13.5225561 9.59440064,9.81436495 C9.59440064,4.80131876 13.6382803,0.737441871 18.6266587,0.737441871 C23.6150371,0.737441871 27.6589168,4.80131876 27.6589168,9.81436495 C27.6589168,13.5065261 25.4653235,16.6838126 22.3163967,18.1018412 Z M18.2768761,51.9421086 C23.5235813,51.9421086 27.7768761,47.6888137 27.7768761,42.4421086 C27.7768761,37.1954035 23.5235813,32.9421086 18.2768761,32.9421086 C13.030171,32.9421086 8.77687614,37.1954035 8.77687614,42.4421086 C8.77687614,47.6888137 13.030171,51.9421086 18.2768761,51.9421086 Z M17.9829197,47.579761 C15.1197593,47.579761 12.7987092,45.2587109 12.7987092,42.3955505 C12.7987092,39.53239 15.1197593,37.2113399 17.9829197,37.2113399 C20.8460801,37.2113399 23.1671303,39.53239 23.1671303,42.3955505 C23.1671303,45.2587109 20.8460801,47.579761 17.9829197,47.579761 Z" id="Combined-Shape"></path>
                    </g>
                    <circle id="Oval" fill="url(#linearGradient-2)" cx="13" cy="16.728621" r="5"></circle>
                </g>
            </g>
        </g>
    </g>
</svg>